# xmcd CD database file
#
# Track frame offsets:
#	182
#	14775
#	29305
#	46007
#
# Disc length: 834 seconds
#
# Revision: 3
# Processed by: cddbd v1.5.2PL0 Copyright (c) Steve Scherf et al.
# Submitted via: CDex 1.70beta2
#
DISCID=29034004
DTITLE=N Sync - It's Gonna Be Me
DYEAR=2000
DGENRE=Pop
TTITLE0=It's Gonna Be Me
TTITLE1=It's Gonna Be Me (Instrumental)
TTITLE2=This Is Where The Party's At
TTITLE3=Bye Bye Bye (Teddy Riley Remix)
EXTD=YEAR: 2000
EXTT0=
EXTT1=
EXTT2=
EXTT3=
PLAYORDER=
